<svg xmlns="http://www.w3.org/2000/svg" viewBox="0 0 308.79 714.38"><defs><style>.cls-1{fill:none;stroke:#fc2205;stroke-miterlimit:10;stroke-width:3px;}.cls-2{fill:#2098d1;}</style></defs><title>fullTree</title><g id="Layer_2" data-name="Layer 2"><g id="Layer_1-2" data-name="Layer 1"><g id="fullTree"><path class="cls-1" d="M51.82,104.53,165.34,2.12l102.58,113.7A152.89,152.89,0,1,1,52,104.71Z"/><path class="cls-2" d="M163,14.38c.8,58.33,2.26,116.66,4,175,.79,29.16,1.82,58.33,2.74,87.5l3.11,87.5.74,21.87c.25,7.29.49,14.59.66,21.88l1.14,43.75c.81,29.16,1.9,58.33,4.35,87.5,5.08,58.33,11.31,116.66,33.76,175H112.3c22.45-58.34,28.68-116.67,33.77-175,2.44-29.17,3.53-58.34,4.34-87.5l1.14-43.75c.18-7.29.42-14.59.67-21.88l.73-21.87,3.12-87.5c.92-29.17,1.94-58.34,2.73-87.5,1.7-58.34,3.17-116.67,4-175Z"/></g></g></g></svg>