<svg xmlns="http://www.w3.org/2000/svg" viewBox="0 0 101.18 700"><defs><style>.cls-1{fill:#2098d1;}</style></defs><title>stem</title><g id="Layer_2" data-name="Layer 2"><g id="Layer_1-2" data-name="Layer 1"><g id="stem"><path class="cls-1" d="M50.72,0c.79,58.33,2.26,116.67,4,175,.79,29.17,1.82,58.33,2.74,87.5L60.53,350l.74,21.88c.24,7.29.49,14.58.66,21.87l1.14,43.75c.81,29.17,1.9,58.33,4.35,87.5,5.08,58.33,11.31,116.67,33.76,175H0c22.45-58.33,28.68-116.67,33.76-175,2.45-29.17,3.54-58.33,4.35-87.5l1.14-43.75c.18-7.29.42-14.58.67-21.87L40.65,350l3.11-87.5c.92-29.17,2-58.33,2.74-87.5,1.7-58.33,3.17-116.67,4-175Z"/></g></g></g></svg>